<svg width="153" height="20" viewBox="0 0 153 20" fill="none" xmlns="http://www.w3.org/2000/svg">
<path d="M9.14019 0.592H12.4422L14.5222 6.702L16.6022 0.592H19.9302L16.7842 8.99L19.1242 14.892L24.3502 0.539999H28.2502L20.7362 19H17.7202L14.5222 11.252L11.3242 19H8.30819L0.846191 0.539999H4.69419L9.94619 14.892L12.2342 8.99L9.14019 0.592ZM35.2255 19.26C34.1335 19.26 33.1455 19.078 32.2615 18.714C31.3775 18.3327 30.6235 17.8213 29.9995 17.18C29.3755 16.5387 28.8902 15.7933 28.5435 14.944C28.2142 14.0947 28.0495 13.202 28.0495 12.266C28.0495 11.2953 28.2142 10.3853 28.5435 9.536C28.8728 8.66933 29.3495 7.91533 29.9735 7.274C30.5975 6.61533 31.3515 6.09533 32.2355 5.714C33.1368 5.33267 34.1422 5.142 35.2515 5.142C36.3608 5.142 37.3488 5.33267 38.2155 5.714C39.0995 6.09533 39.8448 6.60667 40.4515 7.248C41.0755 7.88933 41.5435 8.63467 41.8555 9.484C42.1848 10.3333 42.3495 11.2173 42.3495 12.136C42.3495 12.3613 42.3408 12.578 42.3235 12.786C42.3235 12.994 42.3062 13.1673 42.2715 13.306H31.7415C31.7935 13.8433 31.9235 14.32 32.1315 14.736C32.3395 15.152 32.6082 15.5073 32.9375 15.802C33.2668 16.0967 33.6395 16.322 34.0555 16.478C34.4715 16.634 34.9048 16.712 35.3555 16.712C36.0488 16.712 36.6988 16.5473 37.3055 16.218C37.9295 15.8713 38.3542 15.4207 38.5795 14.866L41.5695 15.698C41.0668 16.738 40.2608 17.596 39.1515 18.272C38.0595 18.9307 36.7508 19.26 35.2255 19.26ZM38.7615 11.044C38.6748 10.0213 38.2935 9.20667 37.6175 8.6C36.9588 7.976 36.1528 7.664 35.1995 7.664C34.7315 7.664 34.2895 7.75067 33.8735 7.924C33.4748 8.08 33.1195 8.30533 32.8075 8.6C32.4955 8.89467 32.2355 9.25 32.0275 9.666C31.8368 10.082 31.7242 10.5413 31.6895 11.044H38.7615ZM53 19.26C51.96 19.26 51.0326 19.026 50.218 18.558C49.4033 18.09 48.762 17.4487 48.294 16.634V19H45.252V0.0199995H48.736V7.768C49.2213 6.936 49.854 6.29467 50.634 5.844C51.4313 5.376 52.3586 5.142 53.416 5.142C54.3 5.142 55.106 5.33267 55.834 5.714C56.562 6.09533 57.186 6.60667 57.706 7.248C58.2433 7.88933 58.6506 8.64333 58.928 9.51C59.2226 10.3767 59.37 11.2867 59.37 12.24C59.37 13.228 59.2053 14.1467 58.876 14.996C58.564 15.8453 58.122 16.5907 57.55 17.232C56.978 17.856 56.302 18.35 55.522 18.714C54.742 19.078 53.9013 19.26 53 19.26ZM52.038 16.296C52.5926 16.296 53.104 16.192 53.572 15.984C54.04 15.7587 54.4386 15.464 54.768 15.1C55.0973 14.736 55.3486 14.3113 55.522 13.826C55.7126 13.3407 55.808 12.8207 55.808 12.266C55.808 11.7113 55.7213 11.1827 55.548 10.68C55.3746 10.1773 55.1233 9.73533 54.794 9.354C54.482 8.97267 54.1093 8.66933 53.676 8.444C53.2426 8.21867 52.766 8.106 52.246 8.106C51.466 8.106 50.764 8.366 50.14 8.886C49.5333 9.38867 49.0653 10.0127 48.736 10.758V14.008C48.8573 14.3547 49.0306 14.6667 49.256 14.944C49.4986 15.2213 49.7673 15.464 50.062 15.672C50.3566 15.8627 50.6773 16.0187 51.024 16.14C51.3706 16.244 51.7086 16.296 52.038 16.296Z" fill="#2196F3"/>
<path d="M80.8726 5.376C80.7512 5.25467 80.5259 5.09 80.1966 4.882C79.8846 4.674 79.4946 4.47467 79.0266 4.284C78.5759 4.076 78.0819 3.90267 77.5446 3.764C77.0072 3.62533 76.4612 3.556 75.9066 3.556C74.9186 3.556 74.1819 3.738 73.6966 4.102C73.2112 4.466 72.9686 4.97733 72.9686 5.636C72.9686 6.01733 73.0552 6.338 73.2286 6.598C73.4192 6.84067 73.6879 7.05733 74.0346 7.248C74.3812 7.43867 74.8146 7.612 75.3346 7.768C75.8719 7.924 76.4872 8.08867 77.1806 8.262C78.0819 8.50467 78.8966 8.76467 79.6246 9.042C80.3699 9.31933 80.9939 9.666 81.4966 10.082C82.0166 10.498 82.4152 11.0007 82.6926 11.59C82.9699 12.162 83.1086 12.8727 83.1086 13.722C83.1086 14.71 82.9179 15.5593 82.5366 16.27C82.1726 16.9633 81.6699 17.5267 81.0286 17.96C80.4046 18.3933 79.6766 18.714 78.8446 18.922C78.0299 19.1127 77.1719 19.208 76.2706 19.208C74.8839 19.208 73.5146 19 72.1626 18.584C70.8106 18.168 69.5972 17.5787 68.5226 16.816L70.1086 13.722C70.2646 13.878 70.5419 14.086 70.9406 14.346C71.3566 14.5887 71.8419 14.84 72.3966 15.1C72.9512 15.3427 73.5666 15.5507 74.2426 15.724C74.9186 15.8973 75.6119 15.984 76.3226 15.984C78.2986 15.984 79.2866 15.3513 79.2866 14.086C79.2866 13.6873 79.1739 13.3493 78.9486 13.072C78.7232 12.7947 78.4026 12.552 77.9866 12.344C77.5706 12.136 77.0679 11.9453 76.4786 11.772C75.8892 11.5987 75.2306 11.408 74.5026 11.2C73.6186 10.9573 72.8472 10.6973 72.1886 10.42C71.5472 10.1253 71.0099 9.78733 70.5766 9.406C70.1432 9.00733 69.8139 8.55667 69.5886 8.054C69.3806 7.534 69.2766 6.91867 69.2766 6.208C69.2766 5.272 69.4499 4.44 69.7966 3.712C70.1432 2.984 70.6199 2.37733 71.2266 1.892C71.8506 1.40667 72.5699 1.04267 73.3846 0.799999C74.1992 0.539999 75.0746 0.409999 76.0106 0.409999C77.3106 0.409999 78.5066 0.617999 79.5986 1.034C80.6906 1.43267 81.6439 1.90933 82.4586 2.464L80.8726 5.376ZM94.2735 18.298C93.8055 18.506 93.2335 18.714 92.5575 18.922C91.8815 19.13 91.1709 19.234 90.4255 19.234C89.9402 19.234 89.4809 19.1733 89.0475 19.052C88.6315 18.9307 88.2589 18.74 87.9295 18.48C87.6175 18.2027 87.3662 17.856 87.1755 17.44C86.9849 17.0067 86.8895 16.4867 86.8895 15.88V8.054H85.0955V5.376H86.8895V0.956H90.3735V5.376H93.2335V8.054H90.3735V14.71C90.3735 15.1953 90.4949 15.542 90.7375 15.75C90.9975 15.9407 91.3095 16.036 91.6735 16.036C92.0375 16.036 92.3929 15.9753 92.7395 15.854C93.0862 15.7327 93.3635 15.6287 93.5715 15.542L94.2735 18.298ZM101.028 19.26C99.6241 19.26 98.5581 18.8093 97.8301 17.908C97.1021 17.0067 96.7381 15.672 96.7381 13.904V5.376H100.222V13.15C100.222 15.2473 100.976 16.296 102.484 16.296C103.16 16.296 103.81 16.0967 104.434 15.698C105.075 15.282 105.595 14.658 105.994 13.826V5.376H109.478V14.996C109.478 15.36 109.539 15.62 109.66 15.776C109.799 15.932 110.015 16.0187 110.31 16.036V19C109.963 19.0693 109.669 19.1127 109.426 19.13C109.201 19.1473 108.993 19.156 108.802 19.156C108.178 19.156 107.667 19.0173 107.268 18.74C106.887 18.4453 106.661 18.0467 106.592 17.544L106.514 16.452C105.907 17.388 105.127 18.09 104.174 18.558C103.221 19.026 102.172 19.26 101.028 19.26ZM119.362 19.26C118.426 19.26 117.56 19.078 116.762 18.714C115.965 18.35 115.28 17.8473 114.708 17.206C114.136 16.5647 113.686 15.8193 113.356 14.97C113.044 14.1033 112.888 13.176 112.888 12.188C112.888 11.2 113.036 10.2813 113.33 9.432C113.642 8.58267 114.067 7.83733 114.604 7.196C115.142 6.55467 115.783 6.052 116.528 5.688C117.274 5.324 118.088 5.142 118.972 5.142C119.978 5.142 120.879 5.38467 121.676 5.87C122.491 6.35533 123.124 6.988 123.574 7.768V0.0199995H127.058V14.996C127.058 15.36 127.119 15.62 127.24 15.776C127.362 15.932 127.57 16.0187 127.864 16.036V19C127.258 19.1213 126.764 19.182 126.382 19.182C125.758 19.182 125.247 19.026 124.848 18.714C124.45 18.402 124.224 17.9947 124.172 17.492L124.094 16.634C123.592 17.5007 122.907 18.1593 122.04 18.61C121.191 19.0433 120.298 19.26 119.362 19.26ZM120.272 16.296C120.602 16.296 120.94 16.244 121.286 16.14C121.633 16.0187 121.954 15.854 122.248 15.646C122.543 15.438 122.803 15.1953 123.028 14.918C123.271 14.6407 123.453 14.3373 123.574 14.008V10.758C123.436 10.3767 123.236 10.03 122.976 9.718C122.734 9.38867 122.448 9.11133 122.118 8.886C121.806 8.64333 121.468 8.45267 121.104 8.314C120.758 8.17533 120.411 8.106 120.064 8.106C119.544 8.106 119.059 8.21867 118.608 8.444C118.175 8.66933 117.802 8.98133 117.49 9.38C117.178 9.76133 116.936 10.2033 116.762 10.706C116.589 11.2087 116.502 11.7287 116.502 12.266C116.502 12.838 116.598 13.3667 116.788 13.852C116.979 14.3373 117.239 14.762 117.568 15.126C117.898 15.49 118.288 15.776 118.738 15.984C119.206 16.192 119.718 16.296 120.272 16.296ZM131.258 19V5.376H134.742V19H131.258ZM131.258 3.478V0.0199995H134.742V3.478H131.258ZM144.957 19.26C143.848 19.26 142.851 19.0693 141.967 18.688C141.083 18.3067 140.329 17.7953 139.705 17.154C139.098 16.4953 138.63 15.7413 138.301 14.892C137.972 14.0427 137.807 13.15 137.807 12.214C137.807 11.2607 137.972 10.3593 138.301 9.51C138.63 8.66067 139.098 7.91533 139.705 7.274C140.329 6.61533 141.083 6.09533 141.967 5.714C142.851 5.33267 143.848 5.142 144.957 5.142C146.066 5.142 147.054 5.33267 147.921 5.714C148.805 6.09533 149.55 6.61533 150.157 7.274C150.781 7.91533 151.258 8.66067 151.587 9.51C151.916 10.3593 152.081 11.2607 152.081 12.214C152.081 13.15 151.916 14.0427 151.587 14.892C151.258 15.7413 150.79 16.4953 150.183 17.154C149.576 17.7953 148.831 18.3067 147.947 18.688C147.063 19.0693 146.066 19.26 144.957 19.26ZM141.395 12.214C141.395 12.8207 141.482 13.3753 141.655 13.878C141.846 14.3633 142.097 14.788 142.409 15.152C142.738 15.516 143.12 15.802 143.553 16.01C143.986 16.2007 144.454 16.296 144.957 16.296C145.46 16.296 145.928 16.2007 146.361 16.01C146.794 15.802 147.167 15.516 147.479 15.152C147.808 14.788 148.06 14.3547 148.233 13.852C148.424 13.3493 148.519 12.7947 148.519 12.188C148.519 11.5987 148.424 11.0527 148.233 10.55C148.06 10.0473 147.808 9.614 147.479 9.25C147.167 8.886 146.794 8.60867 146.361 8.418C145.928 8.21 145.46 8.106 144.957 8.106C144.454 8.106 143.986 8.21 143.553 8.418C143.12 8.626 142.738 8.912 142.409 9.276C142.097 9.64 141.846 10.0733 141.655 10.576C141.482 11.0787 141.395 11.6247 141.395 12.214Z" fill="white"/>
</svg>
